<mxfile host="Electron" agent="Mozilla/5.0 (Windows NT 10.0; Win64; x64) AppleWebKit/537.36 (KHTML, like Gecko) draw.io/27.0.9 Chrome/134.0.6998.205 Electron/35.4.0 Safari/537.36" version="27.0.9">
  <diagram name="페이지-1" id="YSrc_QbogcnPVgbpT_Tu">
    <mxGraphModel dx="1665" dy="841" grid="1" gridSize="10" guides="1" tooltips="1" connect="1" arrows="1" fold="1" page="1" pageScale="1" pageWidth="827" pageHeight="1169" math="0" shadow="0">
      <root>
        <mxCell id="0" />
        <mxCell id="1" parent="0" />
        <mxCell id="DpLWBPmvPZC7ZhsbzpqT-1" value="&lt;font style=&quot;font-size: 18px;&quot;&gt;Data&lt;/font&gt;" style="rounded=0;whiteSpace=wrap;html=1;" vertex="1" parent="1">
          <mxGeometry x="590" y="290" width="120" height="60" as="geometry" />
        </mxCell>
        <mxCell id="DpLWBPmvPZC7ZhsbzpqT-18" style="edgeStyle=orthogonalEdgeStyle;rounded=0;orthogonalLoop=1;jettySize=auto;html=1;" edge="1" parent="1" source="DpLWBPmvPZC7ZhsbzpqT-2">
          <mxGeometry relative="1" as="geometry">
            <mxPoint x="655" y="280" as="targetPoint" />
          </mxGeometry>
        </mxCell>
        <mxCell id="DpLWBPmvPZC7ZhsbzpqT-2" value="&lt;span style=&quot;font-size: 18px;&quot;&gt;TodoItem&lt;/span&gt;&lt;div&gt;&lt;span style=&quot;font-size: 18px;&quot;&gt;(work with the class&#39;s instance)&lt;/span&gt;&lt;/div&gt;&lt;div&gt;&lt;span style=&quot;font-size: 18px;&quot;&gt;-finished&lt;/span&gt;&lt;/div&gt;&lt;div&gt;&lt;span style=&quot;font-size: 18px;&quot;&gt;-to text&lt;br&gt;&lt;/span&gt;&lt;div&gt;&lt;br&gt;&lt;/div&gt;&lt;/div&gt;" style="rounded=0;whiteSpace=wrap;html=1;" vertex="1" parent="1">
          <mxGeometry x="560" y="100" width="190" height="130" as="geometry" />
        </mxCell>
        <mxCell id="DpLWBPmvPZC7ZhsbzpqT-3" value="&lt;font style=&quot;font-size: 18px;&quot;&gt;Function&lt;/font&gt;&lt;div&gt;&lt;font style=&quot;font-size: 18px;&quot;&gt;(get TOdoItems list and item via parameter)&lt;div style=&quot;font-size: 12px;&quot;&gt;&lt;span style=&quot;font-size: 18px;&quot;&gt;functions&lt;/span&gt;&lt;/div&gt;&lt;div style=&quot;font-size: 12px;&quot;&gt;&lt;span style=&quot;font-size: 18px;&quot;&gt;-AddItem&lt;/span&gt;&lt;/div&gt;&lt;div style=&quot;font-size: 12px;&quot;&gt;&lt;span style=&quot;font-size: 18px;&quot;&gt;-RemoveItem&lt;/span&gt;&lt;/div&gt;&lt;div style=&quot;font-size: 12px;&quot;&gt;&lt;span style=&quot;font-size: 18px;&quot;&gt;-FinishItem&lt;/span&gt;&lt;/div&gt;&lt;div style=&quot;font-size: 12px;&quot;&gt;&lt;span style=&quot;font-size: 18px;&quot;&gt;-showList&lt;/span&gt;&lt;/div&gt;&lt;/font&gt;&lt;/div&gt;" style="rounded=0;whiteSpace=wrap;html=1;" vertex="1" parent="1">
          <mxGeometry x="20" y="100" width="260" height="200" as="geometry" />
        </mxCell>
        <mxCell id="DpLWBPmvPZC7ZhsbzpqT-4" value="&lt;font style=&quot;font-size: 18px;&quot;&gt;program&lt;/font&gt;" style="rounded=0;whiteSpace=wrap;html=1;" vertex="1" parent="1">
          <mxGeometry x="430" y="460" width="120" height="60" as="geometry" />
        </mxCell>
        <mxCell id="DpLWBPmvPZC7ZhsbzpqT-11" value="&lt;font style=&quot;font-size: 24px;&quot;&gt;Todo list app&lt;/font&gt;" style="rounded=0;whiteSpace=wrap;html=1;" vertex="1" parent="1">
          <mxGeometry x="150" y="30" width="540" height="60" as="geometry" />
        </mxCell>
        <mxCell id="DpLWBPmvPZC7ZhsbzpqT-5" value="&lt;font style=&quot;font-size: 18px;&quot;&gt;TodoList&lt;/font&gt;&lt;div&gt;&lt;font style=&quot;font-size: 18px;&quot;&gt;-welcome(welcome text)&lt;/font&gt;&lt;/div&gt;&lt;div&gt;&lt;font style=&quot;font-size: 18px;&quot;&gt;-GetUserInput(get input when user add todoitem)&lt;/font&gt;&lt;/div&gt;&lt;div&gt;&lt;font style=&quot;font-size: 18px;&quot;&gt;-todo list view(choose what user want to do with the list)&lt;/font&gt;&lt;/div&gt;&lt;div&gt;&lt;font style=&quot;font-size: 18px;&quot;&gt;-GetAnswer(Get general number answer)&lt;/font&gt;&lt;/div&gt;&lt;div&gt;&lt;font style=&quot;font-size: 18px;&quot;&gt;-in list view(What the user want to do with specific item in the list)&lt;/font&gt;&lt;/div&gt;&lt;div&gt;&lt;font style=&quot;font-size: 18px;&quot;&gt;-in list function(run functions according to answer app got)&lt;/font&gt;&lt;/div&gt;&lt;div&gt;&lt;span style=&quot;font-size: 18px;&quot;&gt;run Function(according to user answer run fuction on to do list view)&lt;/span&gt;&lt;/div&gt;&lt;div&gt;&lt;font style=&quot;font-size: 18px;&quot;&gt;&lt;br&gt;&lt;/font&gt;&lt;/div&gt;" style="rounded=0;whiteSpace=wrap;html=1;" vertex="1" parent="1">
          <mxGeometry x="40" y="340" width="240" height="400" as="geometry" />
        </mxCell>
        <mxCell id="DpLWBPmvPZC7ZhsbzpqT-15" value="" style="endArrow=classic;startArrow=classic;html=1;rounded=0;exitX=0.45;exitY=1.02;exitDx=0;exitDy=0;exitPerimeter=0;entryX=0.404;entryY=-0.007;entryDx=0;entryDy=0;entryPerimeter=0;" edge="1" parent="1" source="DpLWBPmvPZC7ZhsbzpqT-3" target="DpLWBPmvPZC7ZhsbzpqT-5">
          <mxGeometry width="50" height="50" relative="1" as="geometry">
            <mxPoint x="170" y="310" as="sourcePoint" />
            <mxPoint x="200" y="340" as="targetPoint" />
            <Array as="points">
              <mxPoint x="137" y="320" />
            </Array>
          </mxGeometry>
        </mxCell>
        <mxCell id="DpLWBPmvPZC7ZhsbzpqT-16" value="" style="endArrow=none;html=1;rounded=0;entryX=0;entryY=0.5;entryDx=0;entryDy=0;" edge="1" parent="1" target="DpLWBPmvPZC7ZhsbzpqT-1">
          <mxGeometry width="50" height="50" relative="1" as="geometry">
            <mxPoint x="140" y="320" as="sourcePoint" />
            <mxPoint x="540" y="340" as="targetPoint" />
          </mxGeometry>
        </mxCell>
        <mxCell id="DpLWBPmvPZC7ZhsbzpqT-17" value="" style="html=1;shadow=0;dashed=0;align=center;verticalAlign=middle;shape=mxgraph.arrows2.twoWayArrow;dy=0.65;dx=22;" vertex="1" parent="1">
          <mxGeometry x="300" y="460" width="100" height="60" as="geometry" />
        </mxCell>
      </root>
    </mxGraphModel>
  </diagram>
</mxfile>
